<?xml version="1.0" standalone="no"?><!DOCTYPE svg PUBLIC "-//W3C//DTD SVG 1.1//EN" "http://www.w3.org/Graphics/SVG/1.1/DTD/svg11.dtd"><svg t="1683972914887" class="icon" viewBox="0 0 1024 1024" version="1.1" xmlns="http://www.w3.org/2000/svg" p-id="5222" xmlns:xlink="http://www.w3.org/1999/xlink" width="200" height="200"><path d="M922.688 810.624h-149.312a37.376 37.376 0 0 1-37.312-37.376L736 736h-49.792v74.688H611.584V736h-49.792v74.688H462.208V736h-49.728v74.688H337.792V736H288l-0.256 37.248a37.312 37.312 0 0 1-37.312 37.376h-149.12A37.312 37.312 0 0 1 64 773.248V250.752c0-20.672 16.704-37.376 37.312-37.376h821.312a37.312 37.312 0 0 1 37.376 37.376v522.496a37.312 37.312 0 0 1-37.312 37.376z m-37.376-177.344h-39.168a37.376 37.376 0 0 1 0-74.752h39.168V288.128H138.688v270.4h37.952a37.376 37.376 0 0 1 0 74.752h-37.952v102.528H213.12l0.256-49.6c0-20.672 4.288-24.896 24.896-24.896h547.584c20.608 0 24.896 4.224 24.896 24.896v49.6h74.624V633.28zM736 337.792h74.688V512H736V337.792z m-174.208 0h74.688V512H561.792V337.792z m-174.208 0h74.688V512H387.584V337.792z m-174.272 0H288V512l-73.472-0.128-1.216-174.08z" p-id="5223"></path></svg>