<?xml version="1.0" encoding="UTF-8"?><svg id="a" xmlns="http://www.w3.org/2000/svg" xmlns:xlink="http://www.w3.org/1999/xlink" viewBox="0 0 512 512"><defs><style>.e{fill:#fff;fill-rule:evenodd;}.f{fill:url(#c);}</style><radialGradient id="c" cx="257.68" cy="166.3" fx="257.68" fy="166.3" r="388.1" gradientTransform="matrix(1, 0, 0, 1, 0, 0)" gradientUnits="userSpaceOnUse"><stop offset="0" stop-color="#00d2ff"/><stop offset=".34" stop-color="#3682d8"/></radialGradient></defs><path id="b" class="e" d="M453.68,15.23C435.1,5.29,416.68,0,365.86,0H146.14C95.32,0,76.9,5.29,58.32,15.23,39.74,25.16,25.16,39.74,15.23,58.32,5.29,76.9,0,95.32,0,146.14v219.72c0,50.82,5.29,69.24,15.23,87.82,9.94,18.58,24.52,33.16,43.09,43.09,18.58,9.94,37.01,15.23,87.82,15.23h219.72c50.82,0,69.24-5.29,87.82-15.23,18.58-9.94,33.16-24.52,43.09-43.09,9.94-18.58,15.23-37.01,15.23-87.82V146.14c0-50.82-5.29-69.24-15.23-87.82-9.94-18.58-24.52-33.16-43.09-43.09Z"/><path id="d" class="f" d="M189.14,139.38l133.32,191.73h.99V139.38h27.06v235.62h-27.72L188.81,181.29h-.99v193.71h-27.06V139.38h28.38Z"/></svg>