<?xml version="1.0" standalone="no"?><!DOCTYPE svg PUBLIC "-//W3C//DTD SVG 1.1//EN"
        "http://www.w3.org/Graphics/SVG/1.1/DTD/svg11.dtd">
<svg t="1683971182420" class="icon" viewBox="0 0 1024 1024" version="1.1" xmlns="http://www.w3.org/2000/svg" p-id="2501"
     width="200" height="200">
    <path
            d="M768 896H256c-72.533333 0-128-55.466667-128-128V256c0-72.533333 55.466667-128 128-128h512c72.533333 0 128 55.466667 128 128v512c0 72.533333-55.466667 128-128 128zM256 213.333333c-25.6 0-42.666667 17.066667-42.666667 42.666667v512c0 25.6 17.066667 42.666667 42.666667 42.666667h512c25.6 0 42.666667-17.066667 42.666667-42.666667V256c0-25.6-17.066667-42.666667-42.666667-42.666667H256z"
            p-id="2502"></path>
    <path
            d="M640 682.666667H384c-25.6 0-42.666667-17.066667-42.666667-42.666667V384c0-25.6 17.066667-42.666667 42.666667-42.666667h256c25.6 0 42.666667 17.066667 42.666667 42.666667v256c0 25.6-17.066667 42.666667-42.666667 42.666667z m-213.333333-85.333334h170.666666v-170.666666h-170.666666v170.666666zM384 213.333333c-25.6 0-42.666667-17.066667-42.666667-42.666666V42.666667c0-25.6 17.066667-42.666667 42.666667-42.666667s42.666667 17.066667 42.666667 42.666667v128c0 25.6-17.066667 42.666667-42.666667 42.666666zM640 213.333333c-25.6 0-42.666667-17.066667-42.666667-42.666666V42.666667c0-25.6 17.066667-42.666667 42.666667-42.666667s42.666667 17.066667 42.666667 42.666667v128c0 25.6-17.066667 42.666667-42.666667 42.666666zM384 1024c-25.6 0-42.666667-17.066667-42.666667-42.666667v-128c0-25.6 17.066667-42.666667 42.666667-42.666666s42.666667 17.066667 42.666667 42.666666v128c0 25.6-17.066667 42.666667-42.666667 42.666667zM640 1024c-25.6 0-42.666667-17.066667-42.666667-42.666667v-128c0-25.6 17.066667-42.666667 42.666667-42.666666s42.666667 17.066667 42.666667 42.666666v128c0 25.6-17.066667 42.666667-42.666667 42.666667zM981.333333 426.666667h-128c-25.6 0-42.666667-17.066667-42.666666-42.666667s17.066667-42.666667 42.666666-42.666667h128c25.6 0 42.666667 17.066667 42.666667 42.666667s-17.066667 42.666667-42.666667 42.666667zM981.333333 640h-128c-25.6 0-42.666667-17.066667-42.666666-42.666667s17.066667-42.666667 42.666666-42.666666h128c25.6 0 42.666667 17.066667 42.666667 42.666666s-17.066667 42.666667-42.666667 42.666667zM170.666667 426.666667H42.666667c-25.6 0-42.666667-17.066667-42.666667-42.666667s17.066667-42.666667 42.666667-42.666667h128c25.6 0 42.666667 17.066667 42.666666 42.666667s-17.066667 42.666667-42.666666 42.666667zM170.666667 640H42.666667c-25.6 0-42.666667-17.066667-42.666667-42.666667s17.066667-42.666667 42.666667-42.666666h128c25.6 0 42.666667 17.066667 42.666666 42.666666s-17.066667 42.666667-42.666666 42.666667z"
            p-id="2503"></path>
</svg>
